<?xml version="1.0" encoding="utf-8"?>
<!-- Generator: Adobe Illustrator 28.3.0, SVG Export Plug-In . SVG Version: 6.00 Build 0)  -->
<svg version="1.1" id="Layer_1" xmlns="http://www.w3.org/2000/svg" xmlns:xlink="http://www.w3.org/1999/xlink" x="0px" y="0px"
	 viewBox="0 0 400 400" style="enable-background:new 0 0 400 400;" xml:space="preserve">
<style type="text/css">
	.st0{fill:#202066;}
	.st1{fill:none;}
	.st2{fill:#AFE260;}
	.st3{fill:#98AC89;enable-background:new    ;}
	.st4{fill:#604FC9;}
</style>
<g>
	<path class="st0" d="M83.4,318.6c-0.5,1.3-1.2,2.4-2.1,3.4s-2.1,1.8-3.5,2.4s-3,0.9-4.8,0.9c-1.3,0-2.4-0.1-3.3-0.4
		c-1-0.3-1.8-0.6-2.5-1c-0.3-0.2-0.6-0.4-0.8-0.5c-0.2-0.2-0.5-0.3-0.7-0.5v2.1h-2.5v-27.4h2.4v8.8c1.1-0.8,2.3-1.4,3.6-1.8
		c1.3-0.4,2.6-0.6,3.9-0.6c1.7,0,3.2,0.3,4.5,0.8c1.4,0.5,2.5,1.3,3.5,2.3s1.7,2.1,2.2,3.4s0.8,2.7,0.8,4.2
		C84.1,316,83.9,317.3,83.4,318.6z M81.7,314.7c0-1.2-0.2-2.2-0.6-3.2s-0.9-1.9-1.7-2.7c-0.7-0.8-1.6-1.4-2.7-1.8s-2.3-0.7-3.6-0.7
		c-1.4,0-2.6,0.2-3.9,0.7c-1.2,0.5-2.4,1.3-3.6,2.4v10.5c0.1,0.1,0.2,0.2,0.4,0.3c0.1,0.1,0.3,0.2,0.4,0.4c0.2,0.2,0.4,0.4,0.7,0.5
		c0.3,0.2,0.5,0.4,0.8,0.5c0.6,0.4,1.3,0.7,2.2,0.9c0.8,0.3,1.8,0.4,2.9,0.4c1.4,0,2.6-0.2,3.7-0.7s1.9-1.1,2.7-1.8
		c0.7-0.8,1.3-1.7,1.6-2.7C81.5,316.8,81.7,315.8,81.7,314.7L81.7,314.7z"/>
	<path class="st0" d="M111.3,318.6c-0.5,1.3-1.2,2.4-2.1,3.4s-2.1,1.8-3.5,2.4s-3.1,0.9-5.1,0.9c-1.9,0-3.6-0.3-5-0.9
		S93,323,92,322.1c-1-1-1.7-2.1-2.1-3.4c-0.5-1.3-0.7-2.6-0.7-4.1c0-1.7,0.3-3.2,0.9-4.5s1.4-2.4,2.5-3.3c1-0.9,2.3-1.6,3.6-2.1
		c1.4-0.5,2.9-0.7,4.4-0.7c1.6,0,3.1,0.2,4.4,0.7c1.4,0.5,2.6,1.2,3.6,2.1s1.9,2,2.5,3.4c0.6,1.3,0.9,2.8,0.9,4.5
		C111.9,316,111.7,317.3,111.3,318.6z M109.5,314.7c0-1.3-0.2-2.5-0.7-3.5s-1.1-1.9-1.9-2.6s-1.7-1.3-2.8-1.7
		c-1.1-0.4-2.3-0.6-3.6-0.6c-1.3,0-2.5,0.2-3.6,0.6s-2.1,0.9-2.9,1.7c-0.8,0.7-1.4,1.6-1.9,2.6s-0.7,2.2-0.7,3.5
		c0,1.1,0.2,2.1,0.5,3.1c0.4,1,0.9,1.9,1.7,2.7c0.7,0.8,1.7,1.4,2.8,1.9c1.1,0.5,2.5,0.7,4,0.7s2.8-0.2,3.9-0.7s2.1-1.1,2.8-1.9
		c0.7-0.8,1.3-1.7,1.6-2.7C109.3,316.9,109.5,315.8,109.5,314.7L109.5,314.7z"/>
	<path class="st0" d="M139.1,318.6c-0.5,1.3-1.2,2.4-2.1,3.4c-0.9,1-2.1,1.8-3.5,2.4s-3.1,0.9-5.1,0.9c-1.9,0-3.6-0.3-5-0.9
		s-2.6-1.4-3.6-2.3c-0.9-1-1.7-2.1-2.1-3.4c-0.5-1.3-0.7-2.6-0.7-4.1c0-1.7,0.3-3.2,0.9-4.5s1.4-2.4,2.5-3.3c1-0.9,2.3-1.6,3.6-2.1
		c1.4-0.5,2.9-0.7,4.4-0.7c1.6,0,3.1,0.2,4.4,0.7c1.4,0.5,2.6,1.2,3.6,2.1s1.8,2,2.4,3.4c0.6,1.3,0.9,2.8,0.9,4.5
		C139.8,316,139.5,317.3,139.1,318.6z M137.3,314.7c0-1.3-0.2-2.5-0.7-3.5s-1.1-1.9-1.9-2.6c-0.8-0.7-1.7-1.3-2.8-1.7
		c-1.1-0.4-2.3-0.6-3.6-0.6s-2.5,0.2-3.6,0.6s-2.1,0.9-2.9,1.7c-0.8,0.7-1.4,1.6-1.9,2.6s-0.7,2.2-0.7,3.5c0,1.1,0.2,2.1,0.5,3.1
		c0.4,1,0.9,1.9,1.7,2.7c0.7,0.8,1.7,1.4,2.8,1.9c1.1,0.5,2.5,0.7,4,0.7c1.5,0,2.8-0.2,3.9-0.7c1.1-0.5,2.1-1.1,2.8-1.9
		s1.3-1.7,1.6-2.7C137.1,316.9,137.3,315.8,137.3,314.7L137.3,314.7z"/>
	<path class="st0" d="M163.4,324.9l-11.3-10.4l-3,2.3v8.1h-2.4v-27.4h2.4v12.9v3.4c2-1.6,4-3.2,6-4.7c2-1.6,4-3.1,6-4.7h3.8L154,313
		l12.9,11.9L163.4,324.9L163.4,324.9z"/>
	<path class="st0" d="M187.5,324.9l-11.3-10.4l-3,2.3v8.1h-2.4v-27.4h2.4v12.9v3.4c2-1.6,4-3.2,6-4.7c2-1.6,4-3.1,6-4.7h3.8
		l-10.9,8.6l12.9,11.9L187.5,324.9L187.5,324.9z"/>
	<path class="st0" d="M193.7,315.4c0.1,1.4,0.4,2.6,1,3.6s1.2,1.8,2,2.4s1.7,1,2.6,1.3c1,0.3,1.9,0.4,2.8,0.4c1,0,2-0.1,3.1-0.3
		c1.1-0.2,2.1-0.4,3-0.6c1-0.2,1.8-0.4,2.5-0.7c0.7-0.2,1.2-0.4,1.5-0.5l0.2,2.3c-1.4,0.4-2.6,0.8-3.7,1c-1,0.2-2.1,0.5-3.3,0.7
		s-2.3,0.3-3.2,0.3c-1.4,0-2.8-0.2-4.2-0.7s-2.6-1.2-3.7-2.2c-0.9-0.9-1.7-2-2.2-3.3c-0.6-1.3-0.8-2.9-0.8-4.7
		c0-1.6,0.3-3.1,0.9-4.4c0.6-1.3,1.4-2.4,2.5-3.3c1-0.8,2.1-1.5,3.4-2c1.3-0.5,2.7-0.7,4.3-0.7c1.4,0,2.8,0.3,4.1,0.8
		c1.3,0.6,2.4,1.4,3.4,2.4c0.8,0.9,1.5,2,2,3.3s0.8,2.9,0.8,4.9L193.7,315.4L193.7,315.4z M210,313.2c-0.1-0.9-0.4-1.8-0.8-2.6
		c-0.4-0.8-1-1.6-1.6-2.2c-0.7-0.6-1.4-1.1-2.3-1.5c-0.9-0.4-1.8-0.6-2.9-0.6c-1.2,0-2.3,0.2-3.3,0.5c-1,0.4-1.9,0.9-2.6,1.5
		c-0.7,0.6-1.3,1.4-1.8,2.2c-0.4,0.8-0.7,1.7-0.8,2.6L210,313.2L210,313.2z"/>
	<path class="st0" d="M219.5,315.4c0.1,1.4,0.4,2.6,1,3.6s1.2,1.8,2,2.4s1.7,1,2.6,1.3c1,0.3,1.9,0.4,2.8,0.4c1,0,2-0.1,3.1-0.3
		c1.1-0.2,2.1-0.4,3-0.6c1-0.2,1.8-0.4,2.5-0.7c0.7-0.2,1.2-0.4,1.5-0.5l0.2,2.3c-1.4,0.4-2.6,0.8-3.7,1c-1,0.2-2.1,0.5-3.3,0.7
		s-2.2,0.3-3.2,0.3c-1.4,0-2.8-0.2-4.2-0.7s-2.6-1.2-3.7-2.2c-0.9-0.9-1.7-2-2.2-3.3c-0.6-1.3-0.8-2.9-0.8-4.7
		c0-1.6,0.3-3.1,0.9-4.4c0.6-1.3,1.4-2.4,2.5-3.3c1-0.8,2.1-1.5,3.4-2c1.3-0.5,2.7-0.7,4.3-0.7c1.4,0,2.8,0.3,4.1,0.8
		c1.3,0.6,2.4,1.4,3.4,2.4c0.8,0.9,1.5,2,2,3.3s0.8,2.9,0.8,4.9L219.5,315.4L219.5,315.4z M235.8,313.2c-0.1-0.9-0.4-1.8-0.8-2.6
		c-0.4-0.8-1-1.6-1.6-2.2c-0.7-0.6-1.4-1.1-2.3-1.5c-0.9-0.4-1.9-0.6-2.9-0.6c-1.2,0-2.3,0.2-3.3,0.5c-1,0.4-1.9,0.9-2.6,1.5
		c-0.7,0.6-1.3,1.4-1.8,2.2c-0.4,0.8-0.7,1.7-0.8,2.6L235.8,313.2L235.8,313.2z"/>
	<path class="st0" d="M264.9,318.5c-0.4,1.3-1.2,2.5-2.2,3.6c-0.9,0.9-2,1.7-3.4,2.3c-1.4,0.6-3,0.9-4.8,0.9c-0.6,0-1.3-0.1-2.1-0.2
		s-1.8-0.4-2.8-0.8c-0.4-0.2-0.8-0.4-1.3-0.7c-0.4-0.3-0.9-0.5-1.3-0.8v10.8h-2.5v-29.3h2.5v2c0.3-0.3,0.7-0.5,1.1-0.7
		c0.4-0.2,0.8-0.4,1.3-0.6c0.7-0.3,1.5-0.6,2.4-0.8c0.8-0.2,1.8-0.3,2.8-0.3c3.4,0,6.1,1.1,8.2,3.3c0.8,0.9,1.5,2,2,3.2
		s0.8,2.6,0.8,4.1C265.6,315.9,265.3,317.2,264.9,318.5z M263.1,314.6c0-1.1-0.2-2.1-0.5-3.1c-0.4-1-0.9-1.9-1.6-2.6
		c-0.7-0.8-1.6-1.4-2.7-1.9s-2.3-0.7-3.8-0.7c-0.7,0-1.4,0.1-2.1,0.2c-0.7,0.1-1.4,0.3-2.1,0.7c-0.6,0.3-1.1,0.6-1.7,1
		c-0.6,0.4-1.1,0.8-1.6,1.3V320c0.7,0.6,1.3,1.1,1.9,1.5c0.6,0.4,1.1,0.7,1.6,0.9c0.5,0.2,1.1,0.4,1.8,0.5c0.7,0.2,1.4,0.2,2.3,0.2
		c1.2,0,2.4-0.2,3.5-0.6s2.1-1.1,2.9-2c0.6-0.7,1.2-1.5,1.6-2.5C262.9,317,263.1,315.9,263.1,314.6L263.1,314.6z"/>
	<path class="st0" d="M273,315.4c0.1,1.4,0.4,2.6,1,3.6s1.2,1.8,2,2.4s1.7,1,2.6,1.3c1,0.3,1.9,0.4,2.8,0.4c1,0,2-0.1,3.1-0.3
		c1.1-0.2,2.1-0.4,3-0.6c1-0.2,1.8-0.4,2.5-0.7c0.7-0.2,1.2-0.4,1.5-0.5l0.2,2.3c-1.4,0.4-2.6,0.8-3.7,1c-1,0.2-2.1,0.5-3.3,0.7
		c-1.2,0.2-2.3,0.3-3.2,0.3c-1.4,0-2.8-0.2-4.2-0.7c-1.4-0.5-2.6-1.2-3.7-2.2c-0.9-0.9-1.7-2-2.2-3.3c-0.6-1.3-0.8-2.9-0.8-4.7
		c0-1.6,0.3-3.1,0.9-4.4s1.4-2.4,2.5-3.3c1-0.8,2.1-1.5,3.4-2s2.7-0.7,4.3-0.7c1.4,0,2.8,0.3,4.1,0.8c1.3,0.6,2.4,1.4,3.4,2.4
		c0.8,0.9,1.5,2,2,3.3s0.8,2.9,0.8,4.9L273,315.4L273,315.4z M289.2,313.2c-0.1-0.9-0.4-1.8-0.8-2.6c-0.4-0.8-1-1.6-1.6-2.2
		c-0.7-0.6-1.4-1.1-2.3-1.5s-1.8-0.6-2.9-0.6c-1.2,0-2.3,0.2-3.3,0.5c-1,0.4-1.9,0.9-2.6,1.5s-1.3,1.4-1.8,2.2
		c-0.4,0.8-0.7,1.7-0.8,2.6L289.2,313.2L289.2,313.2z"/>
	<path class="st0" d="M312.4,308.5c-0.5-0.6-1-1-1.2-1.2c-0.3-0.2-0.5-0.4-0.8-0.5s-0.7-0.3-1-0.3c-0.4-0.1-0.8-0.1-1.4-0.1
		c-0.5,0-1.1,0.1-1.8,0.2c-0.6,0.1-1.3,0.4-2.1,0.7c-1.3,0.6-2.5,1.4-3.7,2.4v15.4H298v-20.5h2.5v2.3c0.4-0.3,0.9-0.6,1.3-0.9
		s0.9-0.5,1.4-0.7c0.7-0.3,1.5-0.6,2.3-0.8c0.8-0.2,1.6-0.3,2.5-0.3c0.6,0,1.1,0,1.7,0.1s1.1,0.3,1.7,0.5c0.4,0.2,0.8,0.4,1.2,0.7
		s0.9,0.7,1.5,1.3L312.4,308.5z"/>
	<path class="st0" d="M336.1,321.5c-0.4,0.7-1.1,1.3-1.9,2c-0.9,0.6-1.9,1.1-3.2,1.4c-1.2,0.3-2.6,0.5-4.2,0.5
		c-1.2,0-2.4-0.1-3.4-0.3c-1-0.2-2-0.4-2.9-0.7c-0.9-0.3-1.7-0.6-2.4-1.1c-0.7-0.5-1.5-1.1-2.3-1.8l1.8-1.8c0.9,1,2.1,1.8,3.6,2.4
		s3.3,0.9,5.4,0.9c1.1,0,2.2-0.1,3.3-0.4c1.1-0.2,2-0.6,2.8-1.1c1-0.7,1.6-1.6,1.6-2.6c0-0.4-0.1-0.7-0.2-1.1
		c-0.2-0.4-0.4-0.7-0.7-1c-0.2-0.2-0.5-0.4-0.8-0.6s-0.7-0.3-1.2-0.5c-0.5-0.1-1.2-0.3-1.9-0.4c-0.8-0.1-1.8-0.3-2.9-0.5
		s-2.1-0.3-2.9-0.5c-0.8-0.1-1.5-0.3-2.1-0.4s-1.1-0.3-1.5-0.5s-0.8-0.4-1.2-0.7c-1.3-0.9-2-2.1-2-3.6c0-1,0.3-1.8,0.8-2.5
		s1.2-1.2,2.1-1.6c1.7-0.8,4-1.2,6.8-1.2c1,0,2,0.1,3,0.2s2,0.4,2.9,0.8c0.6,0.3,1.2,0.6,1.8,1c0.6,0.4,1.2,1.1,1.9,1.9l-1.9,1.7
		c-0.7-1-1.6-1.8-2.8-2.4c-1.2-0.6-2.8-0.9-4.8-0.9c-1.1,0-2.2,0.1-3.2,0.2s-1.9,0.4-2.6,0.7c-1,0.5-1.4,1.1-1.4,1.9
		c0,0.3,0.1,0.6,0.2,0.8c0.1,0.3,0.3,0.5,0.7,0.8c0.2,0.2,0.5,0.3,0.8,0.5c0.3,0.1,0.7,0.3,1.1,0.4c0.5,0.1,1.1,0.3,1.9,0.4
		s1.8,0.3,3.1,0.5c1.1,0.2,2.1,0.4,2.9,0.5c0.8,0.2,1.5,0.3,2.1,0.5s1.2,0.4,1.6,0.6s0.9,0.5,1.2,0.8c0.6,0.5,1,1,1.4,1.7
		c0.3,0.7,0.5,1.4,0.5,2.1C336.8,319.9,336.5,320.8,336.1,321.5z"/>
</g>
<g>
	<path class="st1" d="M260.4,147.4c-16.2,0-29.4,13.2-29.4,29.4v60c0,16.2,13.2,29.4,29.4,29.4s29.4-13.1,29.4-29.4v-29.4v-30.6
		C289.8,160.6,276.6,147.4,260.4,147.4z"/>
	<path class="st2" d="M290,134h-0.3v4.9c-9-3.9-18.9-6.1-29.4-6.1c-24.4,0-45.9,11.9-59.3,30.1c5.1,9,8.3,19.1,9.2,29.9l0.3,44.1
		c0,16.2,13.1,38.1,29.2,38.1v2.8c6.5,1.9,13.4,3,20.6,3c40.6,0,73.4-32.9,73.4-73.4v-96.6c0-16.2,13.2-29.4,29.4-29.4V66.7
		C324.7,66.7,293.2,96.4,290,134z M289.8,207.4v29.4c0,16.3-13.2,29.4-29.4,29.4S231,253,231,236.8v-60c0-16.2,13.2-29.4,29.4-29.4
		s29.4,13.2,29.4,29.4V207.4z"/>
	<path class="st3" d="M210.5,236.9v-44.1h-0.3c-0.9-10.8-4.1-20.9-9.2-29.9c-8.9,12.1-14.1,27.1-14.1,43.3c0,0.2,0,0.4,0,0.6
		s0,0.4,0,0.6c0,33.4,22.3,61.6,52.8,70.4V275C223.6,275,210.5,253.1,210.5,236.9z"/>
	<path class="st4" d="M186.9,207.4c0-0.2,0-0.4,0-0.6s0-0.4,0-0.6c0-16.2,5.2-31.1,14.1-43.3c-12.6-22.3-36.5-37.4-64-37.4
		c-10.4,0-20.4,2.2-29.4,6.1v-0.3v0c-25.9,11.3-44.1,37.2-44.1,67.3l0,0v0c0,14,3.9,27,10.6,38.1c1.2,2,2.5,4,4,5.9
		c4.2,5.7,9.3,10.7,14.9,14.9c6.6,4.9,14,8.8,22.1,11.3c2.3,0.7,4.6,1.3,7,1.8c4.8,1,9.7,1.5,14.8,1.5c2,0,3.9-0.1,5.9-0.3
		c13.5-1.1,26-5.8,36.4-13.2c-5.7-6.8-10.5-14.7-13.7-23.4c-2.7,10.9-11.5,19.5-22.6,21.7c-1.9,0.4-3.9,0.6-5.9,0.6c0,0-0.1,0-0.1,0
		v-0.1c-8.1,0-15.4-3.3-20.7-8.6c-5.3-5.3-8.6-12.6-8.6-20.7v-60.9c1.2-15.1,13.9-27.1,29.3-27.1c16.2,0,29.4,13.2,29.4,29.4v37.9
		c0,40.6,32.9,73.4,73.4,73.4v-2.9C209.2,269,186.9,240.8,186.9,207.4z"/>
</g>
</svg>
